<svg xmlns="http://www.w3.org/2000/svg" class="wheel" viewBox="0 0 233 280" width="233" height="280">
<symbol id="wheel" 
    fill="none"
    stroke="currentColor"
  />
<g clip-path="url(#a)" class="wheel-g">

<g class="wheel-legs">
<path fill="#5ACC65" d="m186.861 156.495 6.805-1.609a2.694 2.694 0 0 1 2.044.333c.61.379 1.045.986 1.21 1.688l27.448 117.151c.164.702.043 1.44-.335 2.052a2.702 2.702 0 0 1-1.68 1.214l-6.798 1.603a2.697 2.697 0 0 1-2.044-.334 2.719 2.719 0 0 1-1.21-1.687l-27.468-117.142a2.713 2.713 0 0 1 .338-2.057 2.696 2.696 0 0 1 1.69-1.212Z"/>
<path fill="#338A3C" d="m198.899 219.737-14.066-59.973a2.722 2.722 0 0 1 2.015-3.269l6.805-1.609a2.69 2.69 0 0 1 2.043.333 2.72 2.72 0 0 1 1.211 1.688l11.75 50.159c-3.092 4.338-6.316 8.619-9.758 12.671Z"/>
<path fill="#5ACC65" d="m64.845 156.495-6.805-1.609a2.692 2.692 0 0 0-2.044.333 2.717 2.717 0 0 0-1.21 1.688L27.338 274.058a2.728 2.728 0 0 0 1.054 2.828c.288.208.615.357.961.438l6.805 1.61a2.697 2.697 0 0 0 2.044-.334 2.718 2.718 0 0 0 1.21-1.687L66.86 159.761a2.732 2.732 0 0 0-.336-2.051 2.712 2.712 0 0 0-1.679-1.215Z"/>
<path fill="#338A3C" d="m52.807 219.737 14.053-59.973a2.731 2.731 0 0 0-.334-2.053 2.71 2.71 0 0 0-1.68-1.216l-6.806-1.609a2.692 2.692 0 0 0-2.044.333 2.717 2.717 0 0 0-1.21 1.688l-11.754 50.159c3.106 4.338 6.323 8.619 9.775 12.671Z"/>
<path fill="#5ACC65" d="M125.539 223.995c-43.86-.381-83.772-26.049-102.737-65.711a4.189 4.189 0 0 1 1.982-5.589l101.069-47.511 102.407 47.528a4.162 4.162 0 0 1 2.409 3.986 4.152 4.152 0 0 1-.398 1.589c-19.269 40.307-60.155 66.1-104.732 65.708Z"/>
</g>

<g class="wheel-circle">
<path fill="#FF573B" d="m40.727 49.054 84.839 56.462L105.689 5.244l-64.962 43.81Z"/>
<path fill="#fff" d="m25.818 125.804 99.764-20.285-84.859-56.465-14.905 76.75Z"/>
<path fill="#fff" d="m105.689 5.244 19.88 100.292a290244.86 290244.86 0 0 1 56.545-85.03L105.689 5.245Z"/>
<path fill="#FF573B" d="m182.111 20.513-56.542 85.023 99.747-20.284-43.205-64.739Z"/>
<path fill="#fff" d="m225.316 85.235-99.747 20.301 84.842 56.448 14.905-76.749Z"/>
<path fill="#FF573B" d="m69.027 190.526 56.542-84.99-99.75 20.268 43.208 64.722Z"/>
<path fill="#FF573B" d="m210.408 161.981-84.839-56.445 19.88 100.272 64.959-43.827Z"/>
<path fill="#fff" d="m145.449 205.792-19.88-100.256-56.545 84.993 76.425 15.263Z"/>
<path fill="#FF573B" d="M125.856 115.672c5.552 0 10.053-4.522 10.053-10.099 0-5.578-4.501-10.1-10.053-10.1-5.551 0-10.052 4.522-10.052 10.1 0 5.577 4.501 10.099 10.052 10.099Z"/>
<path fill="#fff" d="M132.623 106.785c.883-3.759-1.434-7.525-5.176-8.412-3.741-.887-7.49 1.44-8.373 5.2-.883 3.758 1.434 7.524 5.176 8.411 3.741.888 7.49-1.44 8.373-5.199Z"/>

<path fill="#338A3C" d="M128.364 2.685c-57.79 0-104.637 47.066-104.637 105.121 0 58.055 46.846 105.121 104.637 105.121 57.79 0 104.636-47.063 104.636-105.121C233 49.748 186.154 2.685 128.364 2.685Zm85.869 105.838c0 47.65-38.449 86.287-85.889 86.287s-85.89-38.623-85.89-86.287c0-47.664 38.45-86.287 85.89-86.287s85.889 38.653 85.889 86.287Z"/>
<path fill="#EFE8CE" d="M125.486 12.565c-52.31 0-94.7 42.596-94.7 95.138 0 52.542 42.39 95.139 94.7 95.139s94.693-42.597 94.693-95.139c0-52.542-42.393-95.138-94.693-95.138Zm-.135 178.316c-45.63 0-82.62-37.17-82.62-82.999 0-45.828 36.99-82.991 82.62-82.991s82.606 37.15 82.606 82.991c0 45.842-36.979 82.999-82.606 82.999Z" style="mix-blend-mode:multiply"/>
<path fill="#5ACC65" d="M125.701 0C67.891 0 21.055 47.063 21.055 105.121c0 58.058 46.836 105.121 104.646 105.121s104.627-47.063 104.627-105.121C230.328 47.063 183.478 0 125.701 0Zm85.889 105.868c0 47.647-38.448 86.287-85.889 86.287-47.44 0-85.89-38.657-85.89-86.287 0-47.63 38.45-86.287 85.89-86.287 47.441 0 85.866 38.623 85.866 86.287h.023Z"/>
<path fill="#FFDD50" d="M164.05 17.734a2.678 2.678 0 0 0-1.982-3.222 2.665 2.665 0 0 0-3.207 1.992 2.68 2.68 0 0 0 1.982 3.222 2.665 2.665 0 0 0 3.207-1.992ZM215.236 67.973a2.68 2.68 0 0 0-1.983-3.222 2.666 2.666 0 0 0-3.207 1.992 2.68 2.68 0 0 0 1.983 3.222 2.666 2.666 0 0 0 3.207-1.992ZM216.202 141.845a2.686 2.686 0 0 0 0-3.787 2.657 2.657 0 0 0-3.77 0 2.686 2.686 0 0 0 0 3.787 2.657 2.657 0 0 0 3.77 0ZM164.358 194.827a2.68 2.68 0 0 0-1.982-3.222 2.666 2.666 0 0 0-3.207 1.992 2.68 2.68 0 0 0 1.982 3.222 2.666 2.666 0 0 0 3.207-1.992ZM91.884 194.989a2.68 2.68 0 0 0-1.982-3.222 2.666 2.666 0 0 0-3.207 1.992 2.68 2.68 0 0 0 1.982 3.222 2.666 2.666 0 0 0 3.207-1.992ZM39.347 145.01a2.687 2.687 0 0 0 0-3.788 2.657 2.657 0 0 0-3.77 0 2.687 2.687 0 0 0 0 3.788 2.657 2.657 0 0 0 3.77 0ZM39.326 70.147a2.679 2.679 0 0 0-1.982-3.221 2.665 2.665 0 0 0-3.207 1.991 2.679 2.679 0 0 0 1.982 3.222 2.665 2.665 0 0 0 3.207-1.992ZM91.462 18.49a2.687 2.687 0 0 0 0-3.787 2.657 2.657 0 0 0-3.77 0 2.687 2.687 0 0 0 0 3.788 2.657 2.657 0 0 0 3.77 0Z"/>
<path fill="#FFF18D" d="M57.092 43.11c2.448 0 4.433-1.993 4.433-4.453s-1.985-4.454-4.433-4.454c-2.448 0-4.433 1.994-4.433 4.454s1.985 4.454 4.433 4.454ZM194.043 43.11c2.448 0 4.433-1.993 4.433-4.453s-1.985-4.454-4.433-4.454c-2.449 0-4.434 1.994-4.434 4.454s1.985 4.454 4.434 4.454ZM194.043 176.836c2.448 0 4.433-1.994 4.433-4.454s-1.985-4.454-4.433-4.454c-2.449 0-4.434 1.994-4.434 4.454s1.985 4.454 4.434 4.454ZM57.092 176.836c2.448 0 4.433-1.994 4.433-4.454s-1.985-4.454-4.433-4.454c-2.448 0-4.433 1.994-4.433 4.454s1.985 4.454 4.433 4.454ZM130.143 10.9c.722-2.35-.588-4.844-2.927-5.57a4.43 4.43 0 0 0-5.545 2.94c-.722 2.35.588 4.844 2.927 5.57a4.43 4.43 0 0 0 5.545-2.94ZM222.784 108.915a4.462 4.462 0 0 0 2.354-5.838 4.425 4.425 0 0 0-5.81-2.365c-2.255.958-3.309 3.572-2.355 5.837a4.427 4.427 0 0 0 5.811 2.366ZM130.079 203.127c.928-2.276-.156-4.877-2.422-5.809a4.427 4.427 0 0 0-5.783 2.433c-.928 2.277.157 4.878 2.423 5.81a4.426 4.426 0 0 0 5.782-2.434Z"/>
</g>


<path fill="#C8422B" d="m4.512 127.015-1.322-1.809a119.872 119.872 0 0 1 1.322-38.232l52.524 18.21 1.322 1.809-53.846 20.022Z"/>
<path fill="#FF573B" d="M3.203 125.206a92.01 92.01 0 0 1 0-40.044l53.82 20.022-53.82 20.022Z"/>
<path fill="#fff" d="M8.178 117.961a104.19 104.19 0 0 1-.27-25.554l34.16 12.777-33.89 12.777Z"/>
</g>
<defs><clipPath id="a"><path fill="#fff" d="M0 0h233v280H0z"/></clipPath></defs>
</svg>